<mxfile host="app.diagrams.net" modified="2024-02-11T03:54:10.552Z" agent="Mozilla/5.0 (Windows NT 10.0; Win64; x64) AppleWebKit/537.36 (KHTML, like Gecko) Chrome/121.0.0.0 Safari/537.36" version="23.1.2" etag="jx9_MnW4lAFsmwLur4fb" type="github">
  <diagram name="PÃ¡gina-1" id="JI7bPU52QlgRw3yzSPxs">
    <mxGraphModel>
      <root>
        <mxCell id="0" />
        <mxCell id="1" parent="0" />
      </root>
    </mxGraphModel>
  </diagram>
</mxfile>
